<?xml version="1.0" encoding="utf-8"?>
<!-- Generator: Adobe Illustrator 15.0.0, SVG Export Plug-In . SVG Version: 6.00 Build 0)  -->
<!DOCTYPE svg PUBLIC "-//W3C//DTD SVG 1.1//EN" "http://www.w3.org/Graphics/SVG/1.1/DTD/svg11.dtd">
<svg version="1.1" id="Ebene_1" xmlns="http://www.w3.org/2000/svg" xmlns:xlink="http://www.w3.org/1999/xlink" x="0px" y="0px"
	 width="264.541px" height="101.686px" viewBox="0 0 264.541 101.686" enable-background="new 0 0 264.541 101.686"
	 xml:space="preserve">
<polygon fill="#DBCF2A" points="87.327,27.918 30.331,0.975 42.677,0 108.825,22.516 "/>
<polygon fill="#89786F" points="15.449,13.461 28.695,11.845 75.918,49.446 49.498,58.527 "/>
<polygon fill="#89786F" points="0,25.957 11.31,88.993 42.454,75.962 14.285,23.641 "/>
<g>
	<g>
		<g>
			<defs>
				<polyline id="SVGID_1_" points="258.243,101.686 0,101.686 0,0 258.243,0 				"/>
			</defs>
			<clipPath id="SVGID_2_">
				<use xlink:href="#SVGID_1_"  overflow="visible"/>
			</clipPath>
			<path clip-path="url(#SVGID_2_)" fill="#DBCF2A" d="M251.65,89.084c0.229-0.046,0.412-0.32,0.412-0.596l0.092-1.925
				c0-0.366-0.229-0.458-0.457-0.458h-1.88c-1.466,0-2.016-0.551-2.016-1.926V68.14c0-0.184,0.092-0.275,0.274-0.275h4.308
				c0.275,0,0.459-0.184,0.459-0.458v-2.475c0-0.275-0.184-0.458-0.459-0.458h-4.308c-0.183,0-0.274-0.092-0.274-0.275V58.47
				c0-0.275-0.184-0.459-0.459-0.459h-3.482c-0.275,0-0.459,0.184-0.459,0.459v5.729c0,0.184-0.092,0.275-0.274,0.275h-3.667
				c-0.274,0-0.458,0.183-0.458,0.458v2.475c0,0.274,0.184,0.458,0.458,0.458h3.667c0.183,0,0.274,0.092,0.274,0.275v16.59
				c0,2.934,1.604,4.721,5.042,4.721C249.543,89.45,250.688,89.268,251.65,89.084 M221.619,55.766c0-0.275-0.184-0.459-0.458-0.459
				h-3.483c-0.274,0-0.458,0.184-0.458,0.459v32.769c0,0.274,0.184,0.458,0.458,0.458h3.483c0.274,0,0.458-0.184,0.458-0.458V77.718
				c0-0.274,0.092-0.412,0.87-0.412c0.597,0,0.917,0.229,1.055,0.458c1.925,2.475,5.958,8.204,7.791,10.862
				c0.229,0.32,0.367,0.366,0.779,0.366h3.85c0.733,0,0.733-0.275,0.596-0.504c-1.146-1.604-7.24-9.67-9.44-12.375
				c-0.275-0.274-0.413-0.457-0.413-0.641s0.138-0.413,0.321-0.551c3.07-3.254,8.295-8.982,9.12-10.036
				c0.138-0.275-0.046-0.412-0.55-0.412h-3.896c-0.459,0-0.642,0.137-0.871,0.412c-1.649,2.108-5.133,6.232-7.379,8.708
				c-0.183,0.137-0.412,0.183-1.008,0.183c-0.642,0-0.825-0.137-0.825-0.412V55.766z M201.105,65.436v23.099
				c0,0.274,0.184,0.458,0.458,0.458h3.392c0.321,0.046,0.55-0.138,0.55-0.458V68.461c0-0.229,0.047-0.413,0.321-0.551
				c0.688-0.366,2.246-0.458,3.07-0.458c1.513,0,2.751,0.092,3.896,0.275c0.229,0.046,0.321-0.047,0.321-0.184l0.229-2.934
				c0-0.229-0.046-0.32-0.275-0.366c-1.008-0.184-2.796-0.229-4.217-0.229c-2.658,0-5.27,0.504-7.287,0.963
				C201.289,65.023,201.105,65.16,201.105,65.436 M190.464,85.784c0,0.138-0.045,0.229-0.412,0.321
				c-0.688,0.183-2.245,0.274-3.529,0.274c-4.582,0-5.362-0.458-5.362-4.079c0-3.666,1.009-4.491,4.858-4.491h4.171
				c0.183,0,0.274,0.092,0.274,0.275V85.784z M185.057,67.544c3.941,0,5.407,0.871,5.407,4.399v2.337
				c0,0.184-0.092,0.229-0.274,0.275l-5.729,0.688c-6.736,0.825-7.791,3.208-7.791,7.608c0,4.995,2.292,6.599,10.267,6.599
				c3.07,0,5.912-0.366,7.194-0.779c0.505-0.183,0.597-0.412,0.597-0.687V71.485c0-5.362-2.933-7.471-8.616-7.471
				c-3.07,0-5.362,0.321-7.104,0.825c-0.275,0.092-0.321,0.366-0.275,0.642l0.321,2.246c0.046,0.274,0.412,0.274,0.688,0.229
				C181.206,67.728,183.406,67.544,185.057,67.544 M158.476,77.306c-0.092,0.412-0.184,0.504-0.367,0.504s-0.229-0.092-0.366-0.504
				l-5.271-19.02c-0.092-0.229-0.229-0.459-0.504-0.459h-6.783c-0.275,0-0.458,0.184-0.458,0.459v30.248
				c0,0.274,0.183,0.458,0.458,0.458h3.575c0.274,0,0.458-0.184,0.458-0.458l-0.184-26.261c0-0.505,0.046-0.643,0.229-0.643
				c0.183,0,0.229,0.093,0.366,0.551l5.5,19.02c0.229,0.688,0.32,0.688,0.871,0.688h3.804c0.504,0,0.55-0.092,0.779-0.779
				l6.049-18.974c0.092-0.367,0.184-0.505,0.367-0.505s0.229,0.047,0.229,0.459l-0.183,26.444c0,0.274,0.183,0.458,0.458,0.458
				h3.575c0.274,0,0.458-0.184,0.458-0.458V58.286c0-0.275-0.184-0.459-0.458-0.459h-6.508c-0.275,0-0.551,0.229-0.597,0.459
				L158.476,77.306z"/>
		</g>
	</g>
	<g>
		<g>
			<defs>
				<polyline id="SVGID_3_" points="258.243,101.686 0,101.686 0,0 258.243,0 				"/>
			</defs>
			<clipPath id="SVGID_4_">
				<use xlink:href="#SVGID_3_"  overflow="visible"/>
			</clipPath>
			<path clip-path="url(#SVGID_4_)" fill="#89786F" d="M131.808,89.45c5.591,0,8.02-1.558,8.02-6.966
				c0-2.75-1.283-4.537-5.224-7.149c-3.759-2.476-4.767-3.163-4.767-5.179c0-2.521,1.146-2.75,4.537-2.75
				c1.512,0,3.254,0.229,4.445,0.412c0.184,0.046,0.367-0.046,0.367-0.184l0.183-2.933c0-0.229-0.138-0.274-0.274-0.321
				c-1.238-0.229-3.071-0.366-5.225-0.366c-6.004,0-8.112,1.879-8.112,6.6c0,2.979,1.421,4.125,5.179,6.829s4.721,3.574,4.721,5.271
				c0,2.887-0.642,3.3-4.583,3.3c-1.513,0-3.392-0.138-4.996-0.459c-0.183-0.046-0.366,0.046-0.366,0.184l-0.184,2.934
				c0,0.229,0.138,0.274,0.275,0.32C127.225,89.268,129.653,89.45,131.808,89.45 M106.367,68.46c0-0.274,0.092-0.55,0.367-0.642
				c0.642-0.184,2.062-0.412,3.62-0.412c5.041,0,6.462,1.649,6.462,8.845c0,7.608-0.778,9.854-6.783,9.854
				c-1.008,0-2.611-0.091-3.345-0.32c-0.275-0.092-0.321-0.229-0.321-0.504V68.46z M110.079,89.45c9.075,0,11.32-4.262,11.32-13.657
				c0-8.708-2.658-11.778-10.449-11.778c-1.742,0-3.666,0.366-4.216,0.366c-0.275,0-0.367-0.091-0.367-0.32v-8.295
				c0-0.275-0.183-0.458-0.458-0.458h-3.483c-0.274,0-0.458,0.183-0.458,0.458V88.03c0,0.274,0.092,0.366,0.412,0.458
				C104.396,89.038,107.009,89.45,110.079,89.45 M96.386,76.526c0-4.629-1.146-8.204-2.796-10.129
				c-1.558-1.741-3.758-2.383-7.425-2.383c-3.574,0-5.912,0.596-7.471,2.383c-1.695,1.88-2.887,5.5-2.887,10.129
				c0,4.583,1.237,8.524,2.887,10.449c1.559,1.742,3.713,2.475,7.38,2.475c3.62,0,5.958-0.732,7.516-2.475
				C95.239,85.051,96.386,81.109,96.386,76.526 M80.299,76.526c0-3.804,0.55-6.783,1.696-8.021c0.733-0.778,1.695-1.1,4.17-1.1
				c2.43,0,3.346,0.321,4.033,1.1c1.146,1.237,1.696,4.217,1.696,8.021c0,3.758-0.55,7.149-1.696,8.387
				c-0.688,0.779-1.604,1.101-4.124,1.101c-2.384,0-3.346-0.321-4.079-1.101C80.849,83.676,80.299,80.284,80.299,76.526
				 M65.758,81.201c0,3.804-0.229,4.675-3.025,4.675c-0.732,0-1.375-0.092-1.925-0.184c-0.274-0.046-0.458-0.046-0.55,0.274
				l-0.229,2.521c-0.046,0.366,0,0.55,0.229,0.596c0.642,0.138,2.017,0.32,2.979,0.32c5.637,0,7.012-1.97,7.012-8.065V58.286
				c0-0.275-0.184-0.459-0.458-0.459h-3.575c-0.274,0-0.458,0.184-0.458,0.459V81.201z"/>
		</g>
	</g>
	<g>
		<g>
			<defs>
				<polyline id="SVGID_5_" points="258.243,101.686 0,101.686 0,0 258.243,0 				"/>
			</defs>
			<clipPath id="SVGID_6_">
				<use xlink:href="#SVGID_5_"  overflow="visible"/>
			</clipPath>
			<path clip-path="url(#SVGID_6_)" fill="#89786F" d="M141.853,101.575c0.066,0,0.11-0.044,0.11-0.109v-0.869
				c0-0.065-0.044-0.109-0.11-0.109h-0.791c-0.065,0-0.11,0.044-0.11,0.109v0.869c0,0.065,0.045,0.109,0.11,0.109H141.853z
				 M141.677,99.267c0.066,0,0.11-0.043,0.11-0.109l0.165-4.946c0-0.066-0.044-0.11-0.11-0.11h-0.715
				c-0.065,0-0.109,0.044-0.109,0.11l0.176,4.946c0,0.066,0.044,0.109,0.109,0.109H141.677z M139.28,101.389
				c0.056-0.033,0.077-0.077,0.077-0.132l-0.044-0.406c-0.011-0.089-0.076-0.089-0.153-0.056c-0.341,0.144-0.88,0.264-1.375,0.264
				c-1.439,0-2.022-0.571-2.022-2.144c0-0.055,0.012-0.076,0.066-0.076h3.375c0.187,0,0.285-0.066,0.285-0.495v-0.241
				c0-1.463-0.341-2.518-2.154-2.518c-1.825,0-2.374,1.308-2.374,3.045c0,1.682,0.45,3.056,2.671,3.056
				C138.27,101.686,138.83,101.575,139.28,101.389 M135.763,98.168c0-1.044,0.286-1.979,1.572-1.979
				c1.121,0,1.429,0.571,1.429,1.671c0,0.362-0.033,0.385-0.132,0.385h-2.803C135.774,98.245,135.763,98.212,135.763,98.168
				 M130.034,96.453c0-0.077,0.044-0.11,0.132-0.132c0.286-0.077,0.703-0.11,1.022-0.11c0.868,0,1.429,0.275,1.429,1.166v4.089
				c0,0.065,0.044,0.109,0.11,0.109h0.561c0.065,0,0.11-0.044,0.11-0.109v-4.199c0-1.066-0.605-1.682-2.078-1.682
				c-0.462,0-1.088,0.076-1.649,0.286c-0.021,0.011-0.065,0.011-0.087,0c-0.353-0.231-0.88-0.286-1.528-0.286
				c-0.627,0-1.604,0.132-1.957,0.209c-0.076,0.011-0.109,0.055-0.109,0.121v5.551c0,0.065,0.044,0.109,0.109,0.109h0.561
				c0.066,0,0.11-0.044,0.11-0.109v-5.034c0-0.077,0.033-0.1,0.109-0.121c0.286-0.066,0.803-0.1,1.165-0.1
				c0.825,0,1.21,0.154,1.21,0.704v4.551c0,0.065,0.044,0.109,0.109,0.109h0.561c0.066,0,0.11-0.044,0.11-0.109V96.453z
				 M124.396,98.586c0-1.11-0.242-1.968-0.638-2.43c-0.374-0.418-0.88-0.571-1.759-0.571c-0.857,0-1.374,0.143-1.748,0.571
				c-0.407,0.451-0.659,1.319-0.659,2.43c0,1.099,0.264,2.066,0.659,2.528c0.374,0.417,0.847,0.571,1.726,0.571
				c0.868,0,1.396-0.154,1.77-0.571C124.144,100.652,124.396,99.685,124.396,98.586 M120.384,98.597
				c0-0.989,0.165-1.759,0.483-2.089c0.209-0.208,0.429-0.297,1.144-0.297c0.692,0,0.912,0.089,1.11,0.297
				c0.33,0.33,0.483,1.1,0.483,2.089c0,0.979-0.165,1.825-0.483,2.154c-0.209,0.209-0.418,0.297-1.144,0.297
				c-0.682,0-0.891-0.088-1.099-0.297C120.549,100.422,120.384,99.575,120.384,98.597 M118.591,101.531
				c0.033-0.011,0.044-0.032,0.033-0.087l-0.055-0.484c-0.012-0.055-0.044-0.044-0.088-0.033c-0.242,0.066-0.616,0.132-0.924,0.132
				c-1.198,0-1.594-0.747-1.594-2.374c0-1.715,0.396-2.484,1.616-2.484c0.352,0,0.703,0.055,0.912,0.132
				c0.044,0.011,0.065,0,0.077-0.044l0.044-0.473c0-0.055-0.011-0.065-0.044-0.077c-0.22-0.088-0.594-0.153-1.055-0.153
				c-1.737,0-2.364,1.176-2.364,3.089c0,1.956,0.627,3.012,2.342,3.012C117.92,101.686,118.306,101.62,118.591,101.531
				 M114.187,101.598c0.055-0.011,0.077-0.044,0.088-0.099l0.021-0.341c0-0.066-0.043-0.089-0.099-0.089h-0.45
				c-0.462,0-0.539-0.164-0.539-0.812v-6.65c0-0.066-0.044-0.11-0.109-0.11h-0.561c-0.066,0-0.11,0.044-0.11,0.11v6.65
				c0,1.077,0.253,1.418,1.089,1.418C113.791,101.675,114,101.642,114.187,101.598 M110.718,101.389
				c0.055-0.033,0.076-0.077,0.076-0.132l-0.043-0.406c-0.012-0.089-0.077-0.089-0.154-0.056c-0.341,0.144-0.88,0.264-1.374,0.264
				c-1.44,0-2.022-0.571-2.022-2.144c0-0.055,0.011-0.076,0.065-0.076h3.375c0.187,0,0.286-0.066,0.286-0.495v-0.241
				c0-1.463-0.341-2.518-2.155-2.518c-1.824,0-2.374,1.308-2.374,3.045c0,1.682,0.45,3.056,2.671,3.056
				C109.706,101.686,110.267,101.575,110.718,101.389 M107.2,98.168c0-1.044,0.286-1.979,1.571-1.979c1.122,0,1.43,0.571,1.43,1.671
				c0,0.362-0.033,0.385-0.132,0.385h-2.804C107.211,98.245,107.2,98.212,107.2,98.168 M103.871,101.487
				c0.353-1.132,1.419-4.969,1.55-5.683c0-0.055-0.021-0.109-0.065-0.109h-0.615c-0.056,0-0.089,0.032-0.11,0.099
				c-0.286,1.396-0.956,3.99-1.264,5.067c-0.022,0.055-0.045,0.065-0.121,0.065c-0.066,0-0.1-0.011-0.11-0.065
				c-0.286-1.077-0.945-3.672-1.264-5.067c-0.011-0.056-0.044-0.099-0.1-0.099h-1.077c-0.055,0-0.088,0.032-0.109,0.099
				c-0.319,1.396-0.979,3.979-1.297,5.067c-0.012,0.055-0.045,0.065-0.11,0.065s-0.099-0.011-0.121-0.065
				c-0.274-1.077-0.901-3.672-1.187-5.067c-0.012-0.056-0.022-0.099-0.077-0.099h-0.671c-0.055,0-0.077,0.032-0.077,0.099
				c0.154,0.747,1.122,4.562,1.484,5.693c0.011,0.044,0.044,0.088,0.088,0.088h1.022c0.065,0,0.11-0.011,0.132-0.088
				c0.308-1.021,1-3.562,1.363-5.023c0.011-0.055,0.032-0.065,0.109-0.065c0.055,0,0.088,0.011,0.099,0.065
				c0.33,1.462,0.99,4.034,1.265,5.023c0.022,0.066,0.055,0.088,0.099,0.088h1.056C103.827,101.575,103.85,101.554,103.871,101.487
				 M93.648,101.389c0.056-0.033,0.077-0.077,0.077-0.132l-0.044-0.406c-0.011-0.089-0.077-0.089-0.154-0.056
				c-0.341,0.144-0.879,0.264-1.374,0.264c-1.439,0-2.022-0.571-2.022-2.144c0-0.055,0.011-0.076,0.066-0.076h3.375
				c0.187,0,0.285-0.066,0.285-0.495v-0.241c0-1.463-0.341-2.518-2.154-2.518c-1.825,0-2.374,1.308-2.374,3.045
				c0,1.682,0.45,3.056,2.671,3.056C92.638,101.686,93.198,101.575,93.648,101.389 M90.131,98.168c0-1.044,0.286-1.979,1.572-1.979
				c1.121,0,1.429,0.571,1.429,1.671c0,0.362-0.032,0.385-0.132,0.385h-2.803C90.142,98.245,90.131,98.212,90.131,98.168
				 M85.878,95.903v5.562c0,0.065,0.044,0.109,0.11,0.109h0.55c0.077,0.012,0.12-0.032,0.12-0.109v-5.023
				c0-0.066,0.022-0.1,0.1-0.121c0.23-0.077,0.604-0.11,0.835-0.11c0.308,0,0.583,0.033,0.825,0.077
				c0.044,0.012,0.065-0.011,0.076-0.055l0.056-0.506c0-0.055-0.022-0.077-0.066-0.088c-0.241-0.044-0.527-0.055-0.88-0.055
				c-0.516,0-1.077,0.088-1.615,0.209C85.922,95.805,85.878,95.838,85.878,95.903 M83.325,100.96c0,0.044-0.022,0.066-0.11,0.088
				c-0.165,0.044-0.604,0.066-0.945,0.066c-1.242,0-1.528-0.198-1.528-1.122c0-0.901,0.264-1.176,1.309-1.176h1.209
				c0.044,0,0.066,0.022,0.066,0.066L83.325,100.96L83.325,100.96z M81.995,96.222c1.011,0,1.33,0.309,1.33,1.287v0.594
				c0,0.044-0.022,0.065-0.066,0.076l-1.473,0.143c-1.594,0.154-1.825,0.715-1.825,1.76c0,1.197,0.528,1.604,2.363,1.604
				c0.648,0,1.275-0.065,1.616-0.165c0.11-0.033,0.132-0.099,0.132-0.176v-3.968c0-1.286-0.571-1.792-1.935-1.792
				c-0.659,0-1.231,0.076-1.648,0.197c-0.066,0.022-0.077,0.077-0.066,0.144l0.066,0.362c0.011,0.066,0.065,0.077,0.132,0.066
				C80.973,96.288,81.533,96.222,81.995,96.222 M74.08,101.686c0.539,0,1.309-0.088,1.902-0.209c0.065-0.011,0.109-0.044,0.109-0.11
				v-5.562c0-0.066-0.044-0.109-0.109-0.109h-0.561c-0.066,0-0.11,0.043-0.11,0.109v5.023c0,0.077-0.033,0.099-0.109,0.121
				c-0.242,0.055-0.693,0.099-1.122,0.099c-1.198,0-1.506-0.341-1.506-1.374v-3.869c0-0.066-0.044-0.109-0.109-0.109h-0.561
				c-0.066,0-0.11,0.043-0.11,0.109v3.957C71.794,101.246,72.354,101.686,74.08,101.686 M70.249,98.586
				c0-1.11-0.242-1.968-0.639-2.43c-0.373-0.418-0.879-0.571-1.758-0.571c-0.858,0-1.374,0.143-1.748,0.571
				c-0.406,0.451-0.659,1.319-0.659,2.43c0,1.099,0.264,2.066,0.659,2.528c0.374,0.417,0.847,0.571,1.726,0.571
				c0.868,0,1.396-0.154,1.77-0.571C69.996,100.652,70.249,99.685,70.249,98.586 M66.236,98.597c0-0.989,0.165-1.759,0.483-2.089
				c0.209-0.208,0.429-0.297,1.144-0.297c0.692,0,0.912,0.089,1.11,0.297c0.329,0.33,0.483,1.1,0.483,2.089
				c0,0.979-0.165,1.825-0.483,2.154c-0.209,0.209-0.418,0.297-1.144,0.297c-0.682,0-0.891-0.088-1.1-0.297
				C66.401,100.422,66.236,99.575,66.236,98.597 M64.309,94.222c-0.363,0.836-1.231,2.683-1.649,3.396
				c-0.099,0.154-0.099,0.176-0.176,0.176c-0.077,0-0.088-0.021-0.176-0.176c-0.374-0.703-1.265-2.605-1.604-3.396
				c-0.033-0.088-0.077-0.121-0.154-0.121h-0.626c-0.066,0-0.1,0.044-0.078,0.11c0.21,0.55,1.353,2.792,1.847,3.671
				c0.275,0.495,0.353,0.627,0.353,0.792v2.792c0,0.065,0.044,0.109,0.109,0.109h0.583c0.066,0,0.11-0.044,0.11-0.109v-2.781
				c0-0.165,0.088-0.297,0.396-0.835c0.506-0.88,1.429-2.661,1.88-3.639c0.021-0.066,0.011-0.11-0.056-0.11h-0.593
				C64.396,94.101,64.353,94.134,64.309,94.222"/>
		</g>
	</g>
</g>
<g>
	<line fill="none" x1="264.54" y1="-72.623" x2="264.54" y2="155.883"/>
	<path fill="#DBCF2A" d="M261.659,61.226c-0.021,0.097-0.043,0.117-0.078,0.117c-0.041,0-0.041-0.02-0.078-0.117l-0.924-3.137
		c-0.019-0.059-0.037-0.098-0.097-0.098h-1.744c-0.059,0-0.098,0.04-0.098,0.098v6.429c0,0.058,0.039,0.1,0.098,0.1h1.156
		c0.062,0,0.101-0.042,0.101-0.1l-0.039-4.606c0-0.098,0-0.137,0.039-0.137c0.041,0,0.06,0.018,0.075,0.116l0.785,2.861
		c0.062,0.158,0.078,0.158,0.199,0.158h0.998c0.098,0,0.121-0.021,0.154-0.178l0.865-2.844c0.018-0.078,0.039-0.116,0.078-0.116
		c0.041,0,0.041,0.018,0.041,0.097l-0.041,4.644c0,0.059,0.041,0.099,0.098,0.099h1.195c0.059,0,0.098-0.04,0.098-0.099v-6.428
		c0-0.059-0.039-0.099-0.098-0.099h-1.685c-0.062,0-0.123,0.041-0.123,0.099L261.659,61.226z"/>
	<path fill="#DBCF2A" d="M254.719,64.518c0,0.058,0.037,0.1,0.098,0.1h1.197c0.057,0,0.096-0.042,0.096-0.1v-5.373
		c0-0.038,0.021-0.059,0.062-0.059h1.175c0.059,0,0.098-0.039,0.098-0.097v-0.901c0-0.059-0.039-0.098-0.098-0.098H253.5
		c-0.057,0-0.098,0.04-0.098,0.098v0.901c0,0.058,0.041,0.097,0.098,0.097h1.16c0.039,0,0.057,0.023,0.057,0.059v5.373H254.719z"/>
	<line fill="none" x1="264.54" y1="-72.623" x2="264.54" y2="155.883"/>
	<line fill="none" x1="264.54" y1="-72.623" x2="264.54" y2="155.883"/>
</g>
</svg>
