<?xml version="1.0" encoding="UTF-8" standalone="no"?>
<!-- Created with Inkscape (http://www.inkscape.org/) -->

<svg
   xmlns:dc="http://purl.org/dc/elements/1.1/"
   xmlns:cc="http://creativecommons.org/ns#"
   xmlns:rdf="http://www.w3.org/1999/02/22-rdf-syntax-ns#"
   xmlns:svg="http://www.w3.org/2000/svg"
   xmlns="http://www.w3.org/2000/svg"
   xmlns:sodipodi="http://sodipodi.sourceforge.net/DTD/sodipodi-0.dtd"
   xmlns:inkscape="http://www.inkscape.org/namespaces/inkscape"
   width="16"
   height="16"
   viewBox="0 0 4.2333333 4.2333333"
   version="1.1"
   id="svg4538"
   inkscape:version="0.92.3 (2405546, 2018-03-11)"
   sodipodi:docname="twelnetApp_icon.svg">
  <defs
     id="defs4532" />
  <sodipodi:namedview
     id="base"
     pagecolor="#ffffff"
     bordercolor="#666666"
     borderopacity="1.0"
     inkscape:pageopacity="0.0"
     inkscape:pageshadow="2"
     inkscape:zoom="22.627417"
     inkscape:cx="18.710179"
     inkscape:cy="5.6870703"
     inkscape:document-units="mm"
     inkscape:current-layer="layer1"
     showgrid="false"
     units="px"
     inkscape:window-width="1871"
     inkscape:window-height="1025"
     inkscape:window-x="49"
     inkscape:window-y="27"
     inkscape:window-maximized="1" />
  <metadata
     id="metadata4535">
    <rdf:RDF>
      <cc:Work
         rdf:about="">
        <dc:format>image/svg+xml</dc:format>
        <dc:type
           rdf:resource="http://purl.org/dc/dcmitype/StillImage" />
        <dc:title></dc:title>
      </cc:Work>
    </rdf:RDF>
  </metadata>
  <g
     inkscape:label="Layer 1"
     inkscape:groupmode="layer"
     id="layer1"
     transform="translate(0,-292.76667)">
    <g
       id="g5820">
      <g
         style="fill:#1d53a3"
         transform="matrix(0.00954438,0,0,0.00999935,0,292.66577)"
         id="g4744">
        <g
           style="fill:#1d53a3"
           id="g4687">
	<g
   style="fill:#1d53a3"
   id="g4685">
		<path
   sodipodi:nodetypes="ccsssscc"
   inkscape:connector-curvature="0"
   style="fill:#1d53a3"
   d="M 78.045739,433.451 76.579,335.26 C 27.8,300.038 0,249.409 0,195.254 0,93.155 99.486,10.09 221.771,10.09 c 122.285,0 221.771,83.065 221.771,185.164 0,102.099 -99.486,185.164 -221.771,185.164 -14.488,0 -29.077,-1.211 -43.445,-3.604 z"
   id="path4683" />

	</g>

</g>
        <g
           style="fill:#1d53a3"
           id="g4689">
</g>
        <g
           style="fill:#1d53a3"
           id="g4691">
</g>
        <g
           style="fill:#1d53a3"
           id="g4693">
</g>
        <g
           style="fill:#1d53a3"
           id="g4695">
</g>
        <g
           style="fill:#1d53a3"
           id="g4697">
</g>
        <g
           style="fill:#1d53a3"
           id="g4699">
</g>
        <g
           style="fill:#1d53a3"
           id="g4701">
</g>
        <g
           style="fill:#1d53a3"
           id="g4703">
</g>
        <g
           style="fill:#1d53a3"
           id="g4705">
</g>
        <g
           style="fill:#1d53a3"
           id="g4707">
</g>
        <g
           style="fill:#1d53a3"
           id="g4709">
</g>
        <g
           style="fill:#1d53a3"
           id="g4711">
</g>
        <g
           style="fill:#1d53a3"
           id="g4713">
</g>
        <g
           style="fill:#1d53a3"
           id="g4715">
</g>
        <g
           style="fill:#1d53a3"
           id="g4717">
</g>
      </g>
      <g
         id="g4854"
         transform="matrix(0.00813664,0,0,0.00843476,0.31219724,292.99547)"
         style="fill:#214478;stroke:#2c72db;stroke-width:11.6985569;stroke-miterlimit:4;stroke-dasharray:none">
        <g
           id="g4822"
           style="fill:#214478;stroke:#2c72db;stroke-width:11.6985569;stroke-miterlimit:4;stroke-dasharray:none">
	<g
   id="g4820"
   style="fill:#214478;stroke:#2c72db;stroke-width:11.6985569;stroke-miterlimit:4;stroke-dasharray:none">
		<path
   id="path4818"
   d="M 76.579,433.451 V 335.26 C 27.8,300.038 0,249.409 0,195.254 0,93.155 99.486,10.09 221.771,10.09 c 122.285,0 221.771,83.065 221.771,185.164 0,102.099 -99.486,185.164 -221.771,185.164 -14.488,0 -29.077,-1.211 -43.445,-3.604 z"
   style="fill:#214478;stroke:#2c72db;stroke-width:11.6985569;stroke-miterlimit:4;stroke-dasharray:none"
   inkscape:connector-curvature="0" />

	</g>

</g>
        <g
           id="g4824"
           style="fill:#214478;stroke:#2c72db;stroke-width:11.6985569;stroke-miterlimit:4;stroke-dasharray:none">
</g>
        <g
           id="g4826"
           style="fill:#214478;stroke:#2c72db;stroke-width:11.6985569;stroke-miterlimit:4;stroke-dasharray:none">
</g>
        <g
           id="g4828"
           style="fill:#214478;stroke:#2c72db;stroke-width:11.6985569;stroke-miterlimit:4;stroke-dasharray:none">
</g>
        <g
           id="g4830"
           style="fill:#214478;stroke:#2c72db;stroke-width:11.6985569;stroke-miterlimit:4;stroke-dasharray:none">
</g>
        <g
           id="g4832"
           style="fill:#214478;stroke:#2c72db;stroke-width:11.6985569;stroke-miterlimit:4;stroke-dasharray:none">
</g>
        <g
           id="g4834"
           style="fill:#214478;stroke:#2c72db;stroke-width:11.6985569;stroke-miterlimit:4;stroke-dasharray:none">
</g>
        <g
           id="g4836"
           style="fill:#214478;stroke:#2c72db;stroke-width:11.6985569;stroke-miterlimit:4;stroke-dasharray:none">
</g>
        <g
           id="g4838"
           style="fill:#214478;stroke:#2c72db;stroke-width:11.6985569;stroke-miterlimit:4;stroke-dasharray:none">
</g>
        <g
           id="g4840"
           style="fill:#214478;stroke:#2c72db;stroke-width:11.6985569;stroke-miterlimit:4;stroke-dasharray:none">
</g>
        <g
           id="g4842"
           style="fill:#214478;stroke:#2c72db;stroke-width:11.6985569;stroke-miterlimit:4;stroke-dasharray:none">
</g>
        <g
           id="g4844"
           style="fill:#214478;stroke:#2c72db;stroke-width:11.6985569;stroke-miterlimit:4;stroke-dasharray:none">
</g>
        <g
           id="g4846"
           style="fill:#214478;stroke:#2c72db;stroke-width:11.6985569;stroke-miterlimit:4;stroke-dasharray:none">
</g>
        <g
           id="g4848"
           style="fill:#214478;stroke:#2c72db;stroke-width:11.6985569;stroke-miterlimit:4;stroke-dasharray:none">
</g>
        <g
           id="g4850"
           style="fill:#214478;stroke:#2c72db;stroke-width:11.6985569;stroke-miterlimit:4;stroke-dasharray:none">
</g>
        <g
           id="g4852"
           style="fill:#214478;stroke:#2c72db;stroke-width:11.6985569;stroke-miterlimit:4;stroke-dasharray:none">
</g>
      </g>
      <g
         style="fill:#a2c5fa"
         transform="matrix(-0.05231842,0,0,-0.04343473,3.7335746,295.98778)"
         id="g4816">
        <g
           style="fill:#a2c5fa"
           id="g4756">
	<path
   style="fill:#a2c5fa"
   inkscape:connector-curvature="0"
   d="m 44.076,37.816 c -0.896,-0.51 -1.831,-0.78 -2.706,-0.78 -1.301,0 -2.366,0.596 -3.011,1.68 -1.02,1.22 -2.285,2.646 -2.592,2.867 -2.376,1.612 -4.236,1.429 -6.294,-0.629 L 17.987,29.467 c -2.045,-2.045 -2.233,-3.928 -0.632,-6.291 0.224,-0.309 1.65,-1.575 2.87,-2.596 0.778,-0.463 1.312,-1.151 1.546,-1.995 0.311,-1.123 0.082,-2.444 -0.652,-3.731 C 20.946,14.558 16.828,7.584 13.034,5.577 12.326,5.202 11.528,5.004 10.728,5.004 9.41,5.004 8.17,5.518 7.238,6.449 L 4.7,8.986 c -4.014,4.013 -5.467,8.562 -4.321,13.52 0.956,4.132 3.742,8.529 8.282,13.068 l 14.705,14.705 c 5.746,5.746 11.224,8.66 16.282,8.66 0,0 0,0 0,0 3.721,0 7.188,-1.581 10.306,-4.698 l 2.537,-2.537 c 1.541,-1.541 1.891,-3.87 0.872,-5.796 -2.007,-3.796 -8.98,-7.912 -9.287,-8.092 z"
   id="path4746" />

	<path
   style="fill:#a2c5fa"
   inkscape:connector-curvature="0"
   d="m 58.942,38.003 c -3.69,0 -6.693,-3.003 -6.693,-6.693 0,-0.553 -0.447,-1 -1,-1 -0.553,0 -1,0.447 -1,1 0,4.794 3.899,8.693 8.693,8.693 0.553,0 1,-0.447 1,-1 0,-0.553 -0.447,-1 -1,-1 z"
   id="path4748" />

	<path
   style="fill:#a2c5fa"
   inkscape:connector-curvature="0"
   d="m 58.196,35.662 c 0.553,0 1,-0.447 1,-1 0,-0.553 -0.447,-1 -1,-1 -0.886,0 -1.605,-0.72 -1.605,-1.605 0,-0.553 -0.447,-1 -1,-1 -0.553,0 -1,0.447 -1,1 0,1.987 1.617,3.605 3.605,3.605 z"
   id="path4750" />

	<path
   style="fill:#a2c5fa"
   inkscape:connector-curvature="0"
   d="m 19.942,3.003 c 3.691,0 6.693,3.003 6.693,6.693 0,0.553 0.448,1 1,1 0.552,0 1,-0.447 1,-1 0,-4.794 -3.9,-8.693 -8.693,-8.693 -0.552,0 -1,0.447 -1,1 0,0.553 0.448,1 1,1 z"
   id="path4752" />

	<path
   style="fill:#a2c5fa"
   inkscape:connector-curvature="0"
   d="m 19.689,6.345 c 0,0.553 0.448,1 1,1 0.885,0 1.604,0.72 1.604,1.605 0,0.553 0.448,1 1,1 0.552,0 1,-0.447 1,-1 0,-1.988 -1.617,-3.605 -3.604,-3.605 -0.552,0 -1,0.447 -1,1 z"
   id="path4754" />

</g>
        <g
           style="fill:#a2c5fa"
           id="g4758">
</g>
        <g
           style="fill:#a2c5fa"
           id="g4760">
</g>
        <g
           style="fill:#a2c5fa"
           id="g4762">
</g>
        <g
           style="fill:#a2c5fa"
           id="g4764">
</g>
        <g
           style="fill:#a2c5fa"
           id="g4766">
</g>
        <g
           style="fill:#a2c5fa"
           id="g4768">
</g>
        <g
           style="fill:#a2c5fa"
           id="g4770">
</g>
        <g
           style="fill:#a2c5fa"
           id="g4772">
</g>
        <g
           style="fill:#a2c5fa"
           id="g4774">
</g>
        <g
           style="fill:#a2c5fa"
           id="g4776">
</g>
        <g
           style="fill:#a2c5fa"
           id="g4778">
</g>
        <g
           style="fill:#a2c5fa"
           id="g4780">
</g>
        <g
           style="fill:#a2c5fa"
           id="g4782">
</g>
        <g
           style="fill:#a2c5fa"
           id="g4784">
</g>
        <g
           style="fill:#a2c5fa"
           id="g4786">
</g>
      </g>
    </g>
  </g>
</svg>
