<?xml version="1.0" encoding="UTF-8"?>
<svg width="348px" height="351px" viewBox="0 0 348 351" version="1.1" xmlns="http://www.w3.org/2000/svg" xmlns:xlink="http://www.w3.org/1999/xlink">
    <!-- Generator: Sketch 63.1 (92452) - https://sketch.com -->
    <title>Group</title>
    <desc>Created with Sketch.</desc>
    <defs>
        <linearGradient x1="0.640044248%" y1="50%" x2="50%" y2="100%" id="linearGradient-1">
            <stop stop-color="#7ACBC6" offset="0%"></stop>
            <stop stop-color="#F18977" offset="100%"></stop>
        </linearGradient>
        <linearGradient x1="0.692554099%" y1="50%" x2="50%" y2="100%" id="linearGradient-2">
            <stop stop-color="#7ACBC6" offset="0%"></stop>
            <stop stop-color="#F18977" offset="100%"></stop>
        </linearGradient>
    </defs>
    <g id="Symbols" stroke="none" stroke-width="1" fill="none" fill-rule="evenodd">
        <g id="Group" transform="translate(0.209431, 0.437088)" fill-rule="nonzero">
            <path d="M167.998899,-1.13686838e-13 L167.99909,1.07435076 C75.2287432,4.50283591 1.07055215,81.0067165 1.07055215,174.8808 C1.07055215,270.937687 78.7175608,348.80718 174.5,348.80718 C262.851315,348.80718 335.772055,282.551731 346.555125,196.881759 L347.634195,196.882072 C336.844436,283.146497 263.443267,349.8808 174.5,349.8808 C78.1263112,349.8808 0,271.530631 0,174.8808 C0,80.4137762 74.6372421,3.42916427 167.998899,-1.13686838e-13 Z" id="Combined-Shape-Copy" fill="url(#linearGradient-1)"></path>
            <path d="M170.581097,5.33388236 L170.581064,6.36510835 C81.1868234,9.27562054 9.60874523,82.8763917 9.60874523,173.245023 C9.60874523,265.459635 84.1409742,340.214348 176.081138,340.214348 C260.585706,340.214348 330.384188,277.06216 341.12128,195.245494 L342.1578,195.245583 C331.413849,277.633159 261.154058,341.245023 176.081138,341.245023 C83.5734423,341.245023 8.58113787,266.028861 8.58113787,173.245023 C8.58113787,82.3071094 80.6191975,8.24481101 170.581097,5.33388236 Z" id="Combined-Shape-Copy-2" fill="url(#linearGradient-2)" transform="translate(175.369469, 173.289453) rotate(-180.000000) translate(-175.369469, -173.289453) "></path>
            <path d="M142.162393,191.8808 L142.162393,183.812424 L119.188034,183.812424 L137.923077,142.923535 C140.293447,137.362281 141.478632,131.436355 141.478632,125.145757 L141.478632,125.145757 L141.478632,117.62439 C141.478632,110.42211 137.877493,106.820971 130.675214,106.820971 L130.675214,106.820971 L120.145299,106.820971 C112.94302,106.820971 109.34188,110.42211 109.34188,117.62439 L109.34188,117.62439 L109.34188,134.171398 L118.641026,134.171398 L118.641026,119.128663 C118.641026,117.305301 118.891738,116.142908 119.393162,115.641484 C119.894587,115.140059 121.05698,114.889347 122.880342,114.889347 L122.880342,114.889347 L127.803419,114.889347 C129.626781,114.889347 130.789174,115.140059 131.290598,115.641484 C131.792023,116.142908 132.042735,117.305301 132.042735,119.128663 L132.042735,119.128663 L132.042735,124.598749 C132.042735,130.889347 130.994302,136.496184 128.897436,141.419261 L128.897436,141.419261 L109.478632,183.949176 L109.478632,191.8808 L142.162393,191.8808 Z M190.982906,191.8808 C198.185185,191.8808 201.786325,188.27966 201.786325,181.077381 L201.786325,181.077381 L201.786325,117.62439 C201.786325,110.42211 198.185185,106.820971 190.982906,106.820971 L190.982906,106.820971 L176.897436,106.820971 C169.695157,106.820971 166.094017,110.42211 166.094017,117.62439 L166.094017,117.62439 L166.094017,181.077381 C166.094017,188.27966 169.695157,191.8808 176.897436,191.8808 L176.897436,191.8808 L190.982906,191.8808 Z M188.111111,183.812424 L179.769231,183.812424 C177.945869,183.812424 176.783476,183.561712 176.282051,183.060287 C175.780627,182.558863 175.529914,181.396469 175.529914,179.573108 L175.529914,179.573108 L175.529914,119.128663 C175.529914,117.305301 175.780627,116.142908 176.282051,115.641484 C176.783476,115.140059 177.945869,114.889347 179.769231,114.889347 L179.769231,114.889347 L188.111111,114.889347 C189.843305,114.889347 190.982906,115.140059 191.529914,115.641484 C192.076923,116.142908 192.350427,117.305301 192.350427,119.128663 L192.350427,119.128663 L192.350427,179.573108 C192.350427,181.396469 192.076923,182.558863 191.529914,183.060287 C190.982906,183.561712 189.843305,183.812424 188.111111,183.812424 L188.111111,183.812424 Z M253.068376,173.96627 L253.068376,153.453449 L270.846154,153.453449 L270.846154,145.248321 L253.068376,145.248321 L253.068376,124.735501 L243.495726,124.735501 L243.495726,145.248321 L225.717949,145.248321 L225.717949,153.453449 L243.495726,153.453449 L243.495726,173.96627 L253.068376,173.96627 Z" id="20+" fill="#FFFFFF"></path>
            <path d="M76.6308604,220.034646 L76.6308604,215.010646 L81.3988604,208.754646 L78.0548604,208.754646 L75.1428604,212.674646 L72.2628604,208.754646 L68.9508604,208.754646 L73.6868604,215.010646 L73.6868604,220.034646 L76.6308604,220.034646 Z M92.8274316,220.034646 L92.8274316,217.762646 L87.6754316,217.762646 L87.6754316,215.426646 L92.5074316,215.426646 L92.5074316,213.170646 L87.6754316,213.170646 L87.6754316,211.026646 L92.8274316,211.026646 L92.8274316,208.754646 L84.8114316,208.754646 L84.8114316,220.034646 L92.8274316,220.034646 Z M99.2320029,220.034646 L100.240003,217.698646 L105.232003,217.698646 L106.240003,220.034646 L109.152003,220.034646 L103.872003,208.754646 L101.536003,208.754646 L96.2720029,220.034646 L99.2320029,220.034646 Z M104.288003,215.490646 L101.184003,215.490646 L102.736003,211.874646 L104.288003,215.490646 Z M116.148574,220.034646 L116.148574,215.810646 L117.044574,215.810646 C117.577907,215.810646 117.967241,216.018646 118.212574,216.434646 L118.212574,216.434646 L120.164574,220.034646 L123.396574,220.034646 L121.604574,216.834646 C121.220574,216.130646 120.703241,215.709313 120.052574,215.570646 C120.905907,215.367979 121.567241,214.970646 122.036574,214.378646 C122.505907,213.786646 122.740574,213.063979 122.740574,212.210646 C122.740574,211.090646 122.396574,210.234646 121.708574,209.642646 C121.020574,209.050646 119.993907,208.754646 118.628574,208.754646 L118.628574,208.754646 L113.252574,208.754646 L113.252574,220.034646 L116.148574,220.034646 Z M118.164574,213.602646 L116.116574,213.602646 L116.116574,210.978646 L118.164574,210.978646 C118.815241,210.978646 119.281907,211.082646 119.564574,211.290646 C119.847241,211.498646 119.988574,211.837313 119.988574,212.306646 C119.988574,212.765313 119.847241,213.095979 119.564574,213.298646 C119.281907,213.501313 118.815241,213.602646 118.164574,213.602646 L118.164574,213.602646 Z M131.977145,220.178646 C133.523812,220.178646 134.723812,219.866646 135.577145,219.242646 C136.430479,218.618646 136.857145,217.751979 136.857145,216.642646 C136.857145,216.066646 136.734479,215.570646 136.489145,215.154646 C136.243812,214.738646 135.827812,214.373313 135.241145,214.058646 C134.654479,213.743979 133.849145,213.474646 132.825145,213.250646 C132.195812,213.122646 131.721145,212.997313 131.401145,212.874646 C131.081145,212.751979 130.862479,212.626646 130.745145,212.498646 C130.627812,212.370646 130.569145,212.205313 130.569145,212.002646 C130.569145,211.661313 130.734479,211.386646 131.065145,211.178646 C131.395812,210.970646 131.833145,210.866646 132.377145,210.866646 C133.507812,210.866646 134.585145,211.218646 135.609145,211.922646 L135.609145,211.922646 L136.505145,209.842646 C136.078479,209.479979 135.483812,209.183979 134.721145,208.954646 C133.958479,208.725313 133.171812,208.610646 132.361145,208.610646 C131.443812,208.610646 130.630479,208.767979 129.921145,209.082646 C129.211812,209.397313 128.662479,209.829313 128.273145,210.378646 C127.883812,210.927979 127.689145,211.549313 127.689145,212.242646 C127.689145,212.850646 127.809145,213.362646 128.049145,213.778646 C128.289145,214.194646 128.707812,214.557313 129.305145,214.866646 C129.902479,215.175979 130.729145,215.442646 131.785145,215.666646 C132.638479,215.847979 133.217145,216.029313 133.521145,216.210646 C133.825145,216.391979 133.977145,216.626646 133.977145,216.914646 C133.977145,217.234646 133.809145,217.482646 133.473145,217.658646 C133.137145,217.834646 132.649145,217.922646 132.009145,217.922646 C131.379812,217.922646 130.755812,217.831979 130.137145,217.650646 C129.518479,217.469313 128.937145,217.207979 128.393145,216.866646 L128.393145,216.866646 L127.481145,218.946646 C127.993145,219.319979 128.659812,219.618646 129.481145,219.842646 C130.302479,220.066646 131.134479,220.178646 131.977145,220.178646 Z M155.314288,220.178646 C156.455621,220.178646 157.450288,219.941313 158.298288,219.466646 C159.146288,218.991979 159.799621,218.319979 160.258288,217.450646 C160.716954,216.581313 160.946288,215.559979 160.946288,214.386646 C160.946288,213.213313 160.719621,212.191979 160.266288,211.322646 C159.812954,210.453313 159.162288,209.783979 158.314288,209.314646 C157.466288,208.845313 156.466288,208.610646 155.314288,208.610646 C154.162288,208.610646 153.162288,208.845313 152.314288,209.314646 C151.466288,209.783979 150.812954,210.453313 150.354288,211.322646 C149.895621,212.191979 149.666288,213.213313 149.666288,214.386646 C149.666288,215.559979 149.895621,216.581313 150.354288,217.450646 C150.812954,218.319979 151.466288,218.991979 152.314288,219.466646 C153.162288,219.941313 154.162288,220.178646 155.314288,220.178646 Z M155.314288,217.922646 C154.460954,217.922646 153.794288,217.623979 153.314288,217.026646 C152.834288,216.429313 152.594288,215.549313 152.594288,214.386646 C152.594288,213.223979 152.834288,212.346646 153.314288,211.754646 C153.794288,211.162646 154.460954,210.866646 155.314288,210.866646 C156.156954,210.866646 156.820954,211.165313 157.306288,211.762646 C157.791621,212.359979 158.034288,213.234646 158.034288,214.386646 C158.034288,215.538646 157.794288,216.415979 157.314288,217.018646 C156.834288,217.621313 156.167621,217.922646 155.314288,217.922646 Z M169.014859,220.034646 L169.014859,215.442646 L173.654859,215.442646 L173.654859,213.138646 L169.014859,213.138646 L169.014859,211.058646 L173.974859,211.058646 L173.974859,208.754646 L166.118859,208.754646 L166.118859,220.034646 L169.014859,220.034646 Z M191.392001,220.034646 C192.650668,220.034646 193.730668,219.810646 194.632001,219.362646 C195.533335,218.914646 196.221335,218.266646 196.696001,217.418646 C197.170668,216.570646 197.408001,215.559979 197.408001,214.386646 C197.408001,213.223979 197.168001,212.218646 196.688001,211.370646 C196.208001,210.522646 195.517335,209.874646 194.616001,209.426646 C193.714668,208.978646 192.640001,208.754646 191.392001,208.754646 L191.392001,208.754646 L186.800001,208.754646 L186.800001,220.034646 L191.392001,220.034646 Z M191.184001,217.666646 L189.744001,217.666646 L189.744001,211.122646 L191.184001,211.122646 C192.293335,211.122646 193.120001,211.391979 193.664001,211.930646 C194.208001,212.469313 194.480001,213.287979 194.480001,214.386646 C194.480001,215.485313 194.208001,216.306646 193.664001,216.850646 C193.120001,217.394646 192.293335,217.666646 191.184001,217.666646 L191.184001,217.666646 Z M205.540573,220.034646 L205.540573,208.754646 L202.596573,208.754646 L202.596573,220.034646 L205.540573,220.034646 Z M216.713144,220.178646 C217.491811,220.178646 218.254477,220.103979 219.001144,219.954646 C219.747811,219.805313 220.414477,219.591979 221.001144,219.314646 L221.001144,219.314646 L221.001144,213.666646 L216.377144,213.666646 L216.377144,215.682646 L218.361144,215.682646 L218.361144,217.778646 C217.859811,217.885313 217.353144,217.938646 216.841144,217.938646 C215.774477,217.938646 214.982477,217.647979 214.465144,217.066646 C213.947811,216.485313 213.689144,215.591979 213.689144,214.386646 C213.689144,213.213313 213.937144,212.343979 214.433144,211.778646 C214.929144,211.213313 215.683811,210.930646 216.697144,210.930646 C217.241144,210.930646 217.753144,211.005313 218.233144,211.154646 C218.713144,211.303979 219.214477,211.549313 219.737144,211.890646 L219.737144,211.890646 L220.649144,209.810646 C220.201144,209.437313 219.617144,209.143979 218.897144,208.930646 C218.177144,208.717313 217.406477,208.610646 216.585144,208.610646 C215.401144,208.610646 214.369144,208.845313 213.489144,209.314646 C212.609144,209.783979 211.929144,210.455979 211.449144,211.330646 C210.969144,212.205313 210.729144,213.223979 210.729144,214.386646 C210.729144,215.581313 210.969144,216.613313 211.449144,217.482646 C211.929144,218.351979 212.619811,219.018646 213.521144,219.482646 C214.422477,219.946646 215.486477,220.178646 216.713144,220.178646 Z M229.293715,220.034646 L229.293715,208.754646 L226.349715,208.754646 L226.349715,220.034646 L229.293715,220.034646 Z M240.290286,220.034646 L240.290286,211.138646 L243.666286,211.138646 L243.666286,208.754646 L233.938286,208.754646 L233.938286,211.138646 L237.314286,211.138646 L237.314286,220.034646 L240.290286,220.034646 Z M248.422858,220.034646 L249.430858,217.698646 L254.422858,217.698646 L255.430858,220.034646 L258.342858,220.034646 L253.062858,208.754646 L250.726858,208.754646 L245.462858,220.034646 L248.422858,220.034646 Z M253.478858,215.490646 L250.374858,215.490646 L251.926858,211.874646 L253.478858,215.490646 Z M270.187429,220.034646 L270.187429,217.650646 L265.387429,217.650646 L265.387429,208.754646 L262.443429,208.754646 L262.443429,220.034646 L270.187429,220.034646 Z M149.538288,240.034646 L149.538288,237.762646 L144.386288,237.762646 L144.386288,235.426646 L149.218288,235.426646 L149.218288,233.170646 L144.386288,233.170646 L144.386288,231.026646 L149.538288,231.026646 L149.538288,228.754646 L141.522288,228.754646 L141.522288,240.034646 L149.538288,240.034646 Z M156.326859,240.034646 L158.886859,236.482646 L161.430859,240.034646 L164.870859,240.034646 L160.550859,234.338646 L164.790859,228.754646 L161.382859,228.754646 L158.886859,232.210646 L156.422859,228.754646 L152.998859,228.754646 L157.222859,234.338646 L152.918859,240.034646 L156.326859,240.034646 Z M171.78743,240.034646 L171.78743,235.954646 L174.29943,235.954646 C175.536764,235.954646 176.504764,235.634646 177.20343,234.994646 C177.902097,234.354646 178.25143,233.474646 178.25143,232.354646 C178.25143,231.223979 177.904764,230.341313 177.21143,229.706646 C176.518097,229.071979 175.54743,228.754646 174.29943,228.754646 L174.29943,228.754646 L168.84343,228.754646 L168.84343,240.034646 L171.78743,240.034646 Z M173.89943,233.746646 L171.78743,233.746646 L171.78743,230.978646 L173.89943,230.978646 C174.44343,230.978646 174.846097,231.093313 175.10743,231.322646 C175.368764,231.551979 175.49943,231.901313 175.49943,232.370646 C175.49943,232.839979 175.368764,233.186646 175.10743,233.410646 C174.846097,233.634646 174.44343,233.746646 173.89943,233.746646 L173.89943,233.746646 Z M191.120001,240.034646 L191.120001,237.762646 L185.968001,237.762646 L185.968001,235.426646 L190.800001,235.426646 L190.800001,233.170646 L185.968001,233.170646 L185.968001,231.026646 L191.120001,231.026646 L191.120001,228.754646 L183.104001,228.754646 L183.104001,240.034646 L191.120001,240.034646 Z M198.980573,240.034646 L198.980573,235.810646 L199.876573,235.810646 C200.409906,235.810646 200.799239,236.018646 201.044573,236.434646 L201.044573,236.434646 L202.996573,240.034646 L206.228573,240.034646 L204.436573,236.834646 C204.052573,236.130646 203.535239,235.709313 202.884573,235.570646 C203.737906,235.367979 204.399239,234.970646 204.868573,234.378646 C205.337906,233.786646 205.572573,233.063979 205.572573,232.210646 C205.572573,231.090646 205.228573,230.234646 204.540573,229.642646 C203.852573,229.050646 202.825906,228.754646 201.460573,228.754646 L201.460573,228.754646 L196.084573,228.754646 L196.084573,240.034646 L198.980573,240.034646 Z M200.996573,233.602646 L198.948573,233.602646 L198.948573,230.978646 L200.996573,230.978646 C201.647239,230.978646 202.113906,231.082646 202.396573,231.290646 C202.679239,231.498646 202.820573,231.837313 202.820573,232.306646 C202.820573,232.765313 202.679239,233.095979 202.396573,233.298646 C202.113906,233.501313 201.647239,233.602646 200.996573,233.602646 L200.996573,233.602646 Z M213.769144,240.034646 L213.769144,228.754646 L210.825144,228.754646 L210.825144,240.034646 L213.769144,240.034646 Z M227.261715,240.034646 L227.261715,237.762646 L222.109715,237.762646 L222.109715,235.426646 L226.941715,235.426646 L226.941715,233.170646 L222.109715,233.170646 L222.109715,231.026646 L227.261715,231.026646 L227.261715,228.754646 L219.245715,228.754646 L219.245715,240.034646 L227.261715,240.034646 Z M234.962286,240.034646 L234.962286,233.586646 L240.114286,240.034646 L242.290286,240.034646 L242.290286,228.754646 L239.538286,228.754646 L239.538286,235.202646 L234.370286,228.754646 L232.226286,228.754646 L232.226286,240.034646 L234.962286,240.034646 Z M253.238858,240.178646 C253.974858,240.178646 254.686858,240.066646 255.374858,239.842646 C256.062858,239.618646 256.625524,239.319979 257.062858,238.946646 L257.062858,238.946646 L256.150858,236.866646 C255.222858,237.517313 254.273524,237.842646 253.302858,237.842646 C252.385524,237.842646 251.684191,237.551979 251.198858,236.970646 C250.713524,236.389313 250.470858,235.527979 250.470858,234.386646 C250.470858,233.245313 250.713524,232.386646 251.198858,231.810646 C251.684191,231.234646 252.385524,230.946646 253.302858,230.946646 C254.273524,230.946646 255.222858,231.271979 256.150858,231.922646 L256.150858,231.922646 L257.062858,229.842646 C256.625524,229.469313 256.062858,229.170646 255.374858,228.946646 C254.686858,228.722646 253.974858,228.610646 253.238858,228.610646 C252.065524,228.610646 251.044191,228.850646 250.174858,229.330646 C249.305524,229.810646 248.638858,230.485313 248.174858,231.354646 C247.710858,232.223979 247.478858,233.234646 247.478858,234.386646 C247.478858,235.538646 247.710858,236.551979 248.174858,237.426646 C248.638858,238.301313 249.305524,238.978646 250.174858,239.458646 C251.044191,239.938646 252.065524,240.178646 253.238858,240.178646 Z M270.059429,240.034646 L270.059429,237.762646 L264.907429,237.762646 L264.907429,235.426646 L269.739429,235.426646 L269.739429,233.170646 L264.907429,233.170646 L264.907429,231.026646 L270.059429,231.026646 L270.059429,228.754646 L262.043429,228.754646 L262.043429,240.034646 L270.059429,240.034646 Z" id="YEARSOFDIGITALEXPERIENCE" fill="#7ACBC6"></path>
        </g>
    </g>
</svg>